<?xml version="1.0" encoding="utf-8"?>
<!-- Generator: Adobe Illustrator 27.7.0, SVG Export Plug-In . SVG Version: 6.00 Build 0)  -->
<svg version="1.1" id="ttl-about22.svg" xmlns="http://www.w3.org/2000/svg" xmlns:xlink="http://www.w3.org/1999/xlink" x="0px"
	 y="0px" width="145.219px" height="79.031px" viewBox="0 0 145.219 79.031" style="enable-background:new 0 0 145.219 79.031;"
	 xml:space="preserve">
<style type="text/css">
	.st0{fill-rule:evenodd;clip-rule:evenodd;fill:#222222;stroke:#000000;stroke-miterlimit:10;}
	.st1{fill:#FFCC33;}
</style>
<path id="About" class="st0" d="M7.988,46.58c6.912,0,14.473-7.7,19.658-14.761c-1.729,4.321-2.953,7.993-2.953,10.585
	c0,2.376,1.3,4.176,3.961,4.176c4.032,0,9.288-5.4,14.185-11.088c0.144-0.157,0.222-0.364,0.216-0.577
	c0.027-0.49-0.349-0.908-0.838-0.935c-0.008,0-0.017-0.001-0.026-0.001c-0.252-0.029-0.5,0.082-0.648,0.288
	c-3.241,3.6-9.289,10.513-12.889,10.513c-1.44,0-2.233-0.864-2.233-2.448c0-3.384,2.809-9.793,5.545-16.057l0.936-2.16
	c3.888-9,8.713-20.594,8.857-20.81c0.345-0.097,0.56-0.439,0.5-0.792c-0.021-0.221-0.123-0.427-0.288-0.576
	c-1.3-1.368-3.817-1.945-7.273-1.945c-4.392,0-15.769,1.513-26.066,14.474c-6.193,7.776-8.641,15.625-8.641,21.458
	C-0.001,41.108,2.015,46.58,7.988,46.58z M39.959,2.657c-2.3,5.9-5.4,12.961-8.209,19.441C26.85,31.171,16.557,44.78,7.844,44.78
	c-4.465,0-6.121-4.752-6.121-8.928c0-5.4,2.377-12.746,8.281-20.234c9.865-12.385,20.594-13.825,24.7-13.825
	c1.794-0.083,3.586,0.211,5.259,0.864L39.959,2.657z M50.492,46.436c3.384,0,6.552-2.88,9-6.768c0.845,0.355,1.748,0.55,2.664,0.576
	c3.024,0,5.472-2.376,7.633-4.752c0.168-0.205,0.269-0.457,0.288-0.721c0.042-0.435-0.276-0.822-0.711-0.864
	c-0.051-0.005-0.102-0.005-0.154,0c-0.276,0.029-0.532,0.157-0.721,0.36c-2.448,2.665-4.392,4.177-6.336,4.177
	c-0.615-0.022-1.223-0.144-1.8-0.36c1.625-2.757,2.54-5.875,2.664-9.073c0-1.8-0.432-4.968-3.024-4.968
	c-3.457,0-4.753,4.968-4.753,7.488s0.648,5.617,2.665,7.2c-2.089,3.456-4.753,5.9-7.345,5.9c-2.232,0-3.384-1.44-3.384-4.032
	s0.936-6.481,2.952-12.025c3.744-3.888,12.385-13.969,16.057-20.666c0.802-1.329,1.249-2.841,1.3-4.392
	c0.014-1.807-1.433-3.287-3.24-3.313c-0.342-0.023-0.686,0.026-1.008,0.144c-2.3,0.793-4.824,4.465-8.569,12.674
	c-2.088,4.68-4.1,9.36-6.12,14.689c-3.385,3.96-5.689,6.552-5.689,6.552c-0.144,0.157-0.222,0.363-0.216,0.576
	c-0.027,0.49,0.349,0.909,0.839,0.936c0.008,0,0.016,0.001,0.025,0.001c0.25,0.013,0.49-0.094,0.648-0.288l2.881-3.241
	c-0.975,2.684-1.533,5.501-1.657,8.353c0.006,3.389,1.586,5.837,5.114,5.837H50.492z M64.317,1.936
	c0.81,0.052,1.425,0.751,1.373,1.561c0,0.008-0.001,0.016-0.002,0.024c0,4.032-7.7,13.609-13.537,20.017
	c1.656-4.536,6.193-15.481,10.009-20.089c0.488-0.774,1.267-1.319,2.161-1.512L64.317,1.936z M59.997,25.842
	c1.08,0,1.224,2.376,1.224,3.24c0,2.736-1.08,5.4-2.376,8.065c-1.368-1.3-1.8-3.6-1.8-5.545c0.003-1.583,0.796-5.759,2.956-5.759
	L59.997,25.842z M74.532,46.363c3.312,0,6.264-2.376,8.64-5.04c0.713,0.275,1.469,0.422,2.233,0.432c3.528,0,6.768-2.952,9.72-6.264
	c0.144-0.157,0.222-0.364,0.216-0.577c0.058-0.456-0.265-0.872-0.721-0.93c-0.024-0.003-0.047-0.005-0.071-0.006
	c-0.268-0.001-0.527,0.102-0.72,0.288c-3.384,3.889-6.048,5.689-8.352,5.689c-0.364-0.012-0.726-0.061-1.081-0.144
	c2.161-3.1,4.105-6.913,4.105-11.017c0-1.872-0.576-5.112-3.169-5.112c-4.1,0-6.336,6.912-6.336,10.44
	c0,2.881,0.864,5.041,2.592,6.337c-1.728,1.8-4.176,4.1-7.056,4.1c-2.161,0-3.169-2.016-3.169-4.248c0-4.32,3.1-10.873,8.425-14.4
	c0.262-0.18,0.422-0.474,0.432-0.792c-0.041-0.487-0.447-0.862-0.936-0.864c-0.153,0.015-0.301,0.064-0.432,0.144
	c-6.121,4.032-9.289,11.161-9.289,15.913c0.004,2.956,1.516,6.052,4.973,6.052L74.532,46.363z M85.332,25.482
	c1.225,0,1.369,2.376,1.369,3.384c0,3.6-1.729,7.057-4.033,10.153c-1.656-1.152-1.872-3.528-1.872-4.9
	c0.004-2.876,1.876-8.636,4.54-8.636L85.332,25.482z M112.205,46.435c3.888,0,9.937-8.064,12.817-10.944
	c0.167-0.177,0.268-0.406,0.288-0.649c-0.041-0.487-0.447-0.862-0.936-0.864c-0.247,0.001-0.482,0.105-0.648,0.288
	c-3.1,3.313-9.217,10.369-11.449,10.369c-0.576,0-0.792-0.432-0.792-1.08c0-2.016,2.448-7.848,3.96-11.377
	c0.936-2.16,1.8-4.392,2.52-6.408c0.163-0.261,0.262-0.557,0.288-0.864c-0.02-0.461-0.41-0.818-0.871-0.797
	c-0.022,0.001-0.043,0.003-0.065,0.005c-0.35,0.032-0.654,0.253-0.792,0.576c-2.94,5.37-6.438,10.415-10.437,15.05
	c-2.52,2.736-4.9,4.68-6.84,4.68c-0.609,0.044-1.138-0.413-1.183-1.022c-0.008-0.116,0.001-0.233,0.03-0.346
	c0-2.016,1.441-5.616,3.025-9.433l3.312-7.7c0.107-0.203,0.18-0.422,0.216-0.648c0.06-0.496-0.293-0.947-0.789-1.008
	c-0.001,0-0.002,0-0.003,0c-0.864,0-0.936,0.576-1.224,1.08c-1.08,2.088-2.448,4.176-6.7,8.928
	c-0.167,0.177-0.268,0.406-0.288,0.648c-0.02,0.458,0.336,0.845,0.794,0.865c0.023,0.001,0.047,0.001,0.07,0
	c0.271,0.014,0.534-0.091,0.72-0.288l2.161-2.449c-1.873,4.321-3.1,7.633-3.1,9.937c-0.041,0.73,0.133,1.456,0.5,2.088
	c0.576,0.805,1.536,1.243,2.521,1.152c2.448-0.072,5.256-2.232,7.92-5.112c1.909-2.105,3.666-4.344,5.257-6.7
	c-1.152,2.737-2.809,6.985-2.809,9.073c-0.066,0.893,0.279,1.768,0.937,2.376c0.446,0.375,1.011,0.579,1.594,0.575L112.205,46.435z
	 M126.435,35.779c0.247-0.001,0.482-0.105,0.648-0.288c1.149-1.213,2.23-2.487,3.241-3.817c-1.103,3.083-1.758,6.308-1.945,9.577
	c0,2.52,1.081,5.112,3.673,5.112c3.672,0,10.513-8.064,12.889-10.872c0.167-0.177,0.268-0.406,0.288-0.649
	c-0.041-0.487-0.447-0.862-0.936-0.864c-0.247,0.001-0.482,0.105-0.648,0.288c-4.105,4.609-9.433,10.3-11.593,10.3
	c-1.512,0-1.944-2.016-1.944-3.384c0-4.032,2.448-10.8,4.1-15.049h8.065c0.513-0.009,0.927-0.423,0.936-0.936
	c-0.015-0.493-0.428-0.88-0.92-0.865c-0.005,0-0.01,0-0.016,0.001h-7.345l0.36-0.865c1.512-3.6,2.808-6.7,4.176-10.152
	c0.082-0.207,0.131-0.426,0.144-0.648c-0.006-0.475-0.389-0.859-0.864-0.865c-0.378,0-0.719,0.228-0.864,0.577
	c0,0-0.864,1.944-3.24,7.992c-0.648,1.368-1.224,2.736-1.872,3.961h-4.465c-0.493-0.024-0.911,0.356-0.935,0.849
	c0,0.005,0,0.01-0.001,0.016c0.009,0.513,0.423,0.927,0.936,0.936h3.529c-1.664,2.957-3.697,5.691-6.049,8.136
	c-0.183,0.166-0.287,0.401-0.288,0.648c0.016,0.493,0.43,0.88,0.923,0.864c0.007,0,0.014-0.001,0.021-0.001L126.435,35.779z"/>
<rect id="長方形_3" x="22.688" y="77.031" class="st1" width="100" height="2"/>
</svg>
