<?xml version="1.0" encoding="utf-8"?>
<!-- Generator: Adobe Illustrator 27.7.0, SVG Export Plug-In . SVG Version: 6.00 Build 0)  -->
<svg version="1.1" id="ttl-access2.svg" xmlns="http://www.w3.org/2000/svg" xmlns:xlink="http://www.w3.org/1999/xlink" x="0px"
	 y="0px" width="145.594px" height="79.03px" viewBox="0 0 145.594 79.03" style="enable-background:new 0 0 145.594 79.03;"
	 xml:space="preserve">
<style type="text/css">
	.st0{fill-rule:evenodd;clip-rule:evenodd;fill:#222222;stroke:#000000;stroke-miterlimit:10;}
	.st1{fill:#FFCC33;}
</style>
<path id="Access" class="st0" d="M7.988,46.58c6.912,0,14.473-7.71,19.658-14.76c-1.729,4.32-2.953,7.99-2.953,10.58
	c0,2.38,1.3,4.18,3.961,4.18c4.032,0,9.288-5.4,14.185-11.09c0.146-0.157,0.223-0.366,0.216-0.58
	c0.025-0.488-0.351-0.904-0.839-0.929c-0.008,0-0.017-0.001-0.025-0.001c-0.253-0.028-0.501,0.083-0.648,0.29
	c-3.241,3.6-9.289,10.51-12.889,10.51c-1.44,0-2.233-0.86-2.233-2.45c0-3.38,2.809-9.79,5.545-16.06l0.936-2.16
	c3.888-9,8.713-20.59,8.857-20.81c0.344-0.097,0.559-0.438,0.5-0.79c-0.021-0.219-0.124-0.423-0.288-0.57
	c-1.3-1.37-3.817-1.95-7.273-1.95c-4.392,0-15.769,1.51-26.066,14.47c-6.193,7.78-8.641,15.63-8.641,21.46
	C-0.001,41.11,2.015,46.58,7.988,46.58z M39.959,2.66c-2.3,5.9-5.4,12.96-8.209,19.44c-4.9,9.07-15.193,22.68-23.906,22.68
	c-4.465,0-6.121-4.75-6.121-8.93c0-5.4,2.377-12.74,8.281-20.23c9.865-12.39,20.594-13.83,24.7-13.83
	c1.795-0.086,3.588,0.21,5.259,0.87L39.959,2.66z M46.676,46.51c6.552,0,11.161-4.97,16.849-11.02
	c0.146-0.157,0.223-0.366,0.216-0.58c-0.034-0.501-0.435-0.899-0.936-0.93c-0.222,0.019-0.429,0.123-0.576,0.29
	c-5.185,5.97-10.081,10.44-15.409,10.44c-2.3,0-3.529-1.44-3.529-4.11c0-3.6,2.376-8.78,6.625-12.89
	c0.888-1.009,2.12-1.65,3.456-1.8c1.512,0,2.016,1.3,2.016,2.67c0,0.43-0.144,0.79-0.144,1.37c0.017,0.492,0.43,0.878,0.922,0.861
	c0.005,0,0.009,0,0.014,0c0.864,0,1.008-1.15,1.008-2.02c0-2.66-1.152-4.68-3.816-4.68c-1.804,0.141-3.495,0.938-4.752,2.24
	c-4.321,4.1-7.057,9.86-7.057,14.25c0.004,3.39,1.588,5.91,5.117,5.91L46.676,46.51z M67.676,46.51
	c6.552,0,11.161-4.97,16.849-11.02c0.146-0.157,0.223-0.366,0.216-0.58c-0.034-0.501-0.435-0.899-0.936-0.93
	c-0.222,0.019-0.429,0.123-0.576,0.29c-5.185,5.97-10.081,10.44-15.409,10.44c-2.3,0-3.529-1.44-3.529-4.11
	c0-3.6,2.376-8.78,6.625-12.89c0.888-1.009,2.12-1.65,3.456-1.8c1.512,0,2.016,1.3,2.016,2.67c0,0.43-0.144,0.79-0.144,1.37
	c0.017,0.492,0.43,0.878,0.922,0.861c0.005,0,0.009,0,0.014,0c0.864,0,1.008-1.15,1.008-2.02c0-2.66-1.152-4.68-3.816-4.68
	c-1.804,0.141-3.495,0.938-4.752,2.24c-4.321,4.1-7.057,9.86-7.057,14.25c0.004,3.39,1.588,5.91,5.117,5.91L67.676,46.51z
	 M88.892,46.51c4.464,0,10.585-4.03,16.633-11.02c0.146-0.157,0.223-0.366,0.216-0.58c0.038-0.475-0.317-0.892-0.792-0.93
	c-0.273-0.029-0.543,0.079-0.72,0.29c-6.409,7.34-12.1,10.44-15.481,10.44c-2.449,0-3.529-1.66-3.529-4.11
	c0.014-1.414,0.233-2.818,0.648-4.17c8.857-1.88,13.249-5.91,13.249-9.22c0-2.02-1.44-3.24-3.672-3.24
	c-6.336,0-12.025,10.44-12.025,16.49c0.004,3.17,1.516,6.05,5.477,6.05L88.892,46.51z M95.444,25.77c0.648,0,1.872,0.29,1.872,1.37
	c0,2.01-3.168,5.4-10.657,7.27c1.445-3.17,5.045-8.64,8.789-8.64L95.444,25.77z M107.587,47.01c6.481,0,13.25-6.26,17.786-11.52
	c0.146-0.185,0.223-0.415,0.216-0.65c0.018-0.457-0.338-0.842-0.794-0.86c-0.023-0.001-0.046-0.001-0.07,0
	c-0.25-0.014-0.492,0.094-0.648,0.29c-3.024,3.38-6.841,7.2-10.8,9.29c0.819-1.935,1.188-4.031,1.08-6.13
	c0-2.8-0.432-5.54-0.432-8.78c-0.071-1.075,0.076-2.153,0.432-3.17c0.474-0.425,0.823-0.971,1.008-1.58
	c0.033-0.476-0.318-0.891-0.792-0.94c-0.72,0-1.368,0.94-1.656,1.37c-2.173,3.322-4.529,6.52-7.057,9.58
	c-2.104,2.47-4.341,4.823-6.7,7.05c-0.213,0.181-0.344,0.441-0.36,0.72c0.023,0.263,0.123,0.514,0.288,0.72
	c1.962,2.775,5.104,4.479,8.5,4.609L107.587,47.01z M100.887,41.83c2.3-2.24,4.32-4.4,5.976-6.34c2.161-2.59,3.89-4.823,5.185-6.7
	c0,2.74,0.5,5.48,0.5,8.79c0,4.25-1.08,7.56-4.681,7.56c-2.72,0.076-5.312-1.155-6.972-3.31L100.887,41.83z M127.587,47.01
	c6.481,0,13.25-6.26,17.786-11.52c0.146-0.185,0.223-0.415,0.216-0.65c0.018-0.457-0.338-0.842-0.794-0.86
	c-0.023-0.001-0.046-0.001-0.07,0c-0.25-0.014-0.492,0.094-0.648,0.29c-3.024,3.38-6.841,7.2-10.8,9.29
	c0.819-1.935,1.188-4.031,1.08-6.13c0-2.8-0.432-5.54-0.432-8.78c-0.071-1.075,0.076-2.153,0.432-3.17
	c0.474-0.425,0.823-0.971,1.008-1.58c0.033-0.476-0.318-0.891-0.792-0.94c-0.72,0-1.368,0.94-1.656,1.37
	c-2.173,3.322-4.529,6.52-7.057,9.58c-2.104,2.47-4.341,4.823-6.7,7.05c-0.213,0.181-0.344,0.441-0.36,0.72
	c0.023,0.263,0.123,0.514,0.288,0.72c1.962,2.775,5.104,4.479,8.5,4.609L127.587,47.01z M120.887,41.83
	c2.3-2.24,4.32-4.4,5.976-6.34c2.161-2.59,3.89-4.823,5.185-6.7c0,2.74,0.5,5.48,0.5,8.79c0,4.25-1.08,7.56-4.681,7.56
	c-2.72,0.076-5.312-1.155-6.972-3.31L120.887,41.83z"/>
<rect id="長方形_3_のコピー_6" x="27.688" y="77.03" class="st1" width="100" height="2"/>
</svg>
