<svg id="ttl-menu2.svg" xmlns="http://www.w3.org/2000/svg" width="145.875" height="79.62" viewBox="0 0 145.875 79.62">
  <defs>
    <style>
      .cls-1 {
        fill: #222;
        fill-rule: evenodd;
      }

      .cls-2 {
        fill: #fc3;
      }
    </style>
  </defs>
  <path id="Menu" class="cls-1" d="M633.179,1192.12a0.922,0.922,0,0,0,.792-0.58c1.008-2.52,4.825-11.45,8.065-19.22,4.248-9.37,15.265-25.13,21.962-25.13,2.592,0,3.456,2.16,3.456,4.68,0,4.03-1.368,7.99-3.168,11.95-3.6,7.78-9.289,22.32-11.089,27a0.925,0.925,0,0,0-.072.43,0.779,0.779,0,0,0,.864.8,0.939,0.939,0,0,0,.864-0.58c2.88-7.49,7.057-18.15,10.729-26.07,3.168-5.69,12.1-18.21,19.37-18.21,1.944,0,2.808,1.58,2.808,3.6,0,4.24-4.248,13.46-6.265,18.21-2.016,4.68-6.768,15.05-6.768,19.37a3.815,3.815,0,0,0,3.96,4.11c3.168,0,8.569-6.41,12.817-11.02a0.814,0.814,0,0,0,.216-0.58,0.935,0.935,0,0,0-.864-0.93,1.041,1.041,0,0,0-.648.29c-3.024,3.24-9.145,10.51-11.593,10.51a2.22,2.22,0,0,1-2.088-2.45c0-3.46,4.464-13.32,6.625-18.58,1.944-4.68,6.336-13.61,6.336-18.93,0-2.74-1.3-5.33-4.464-5.33-6.409,0-12.385,6.69-16.634,12.24a23.866,23.866,0,0,0,.864-5.83c0-3.6-1.512-6.48-5.256-6.48-5.4,0-11.809,7.2-16.922,14.68,1.153-2.59,3.745-8.71,3.745-10.36,0-2.81-2.592-3.89-5.113-3.89-3.816,0-10.081,2.45-10.081,5.9a0.911,0.911,0,0,0,1.8.15c0-2.74,5.9-4.25,8.28-4.25,1.3,0,3.313.29,3.313,2.09,0,1.94-6.913,17.71-11.089,27.72-2.449,5.83-4.609,10.94-5.617,13.46a1.253,1.253,0,0,0-.072.51A0.8,0.8,0,0,0,633.179,1192.12Zm62.529,0.36c4.464,0,10.585-4.03,16.633-11.02a0.814,0.814,0,0,0,.216-0.58,0.864,0.864,0,0,0-.792-0.93,0.825,0.825,0,0,0-.72.29c-6.409,7.34-12.1,10.44-15.481,10.44-2.449,0-3.529-1.66-3.529-4.11a14.7,14.7,0,0,1,.648-4.17c8.857-1.88,13.249-5.91,13.249-9.22,0-2.02-1.44-3.24-3.672-3.24-6.336,0-12.025,10.44-12.025,16.49C690.235,1189.6,691.747,1192.48,695.708,1192.48Zm6.552-20.74c0.648,0,1.872.29,1.872,1.37,0,2.01-3.168,5.4-10.657,7.27C694.916,1177.21,698.516,1171.74,702.26,1171.74Zm16.32,20.31a1.2,1.2,0,0,0,1.008-.65c1.224-2.02,4.32-7.85,7.849-12.32,3.168-3.96,6.768-7.27,10.152-7.27a0.978,0.978,0,0,1,1.225,1.15c0,1.8-1.657,5.4-2.953,8.14-1.584,3.38-3.024,6.48-3.024,8.57a2.486,2.486,0,0,0,2.592,2.59c3.529,0,9-6.12,13.177-10.8a0.814,0.814,0,0,0,.216-0.58,0.847,0.847,0,0,0-.864-0.93,1.041,1.041,0,0,0-.648.29c-4.248,4.75-9.289,10.22-11.809,10.22a0.786,0.786,0,0,1-.864-0.93c0-1.66,1.512-5.12,2.88-7.71,1.008-1.94,3.1-6.48,3.1-9.22,0-1.65-1.3-2.59-3.025-2.59-4.392,0-8.712,3.96-12.6,9.22a25.9,25.9,0,0,0,1.728-6.27,2.889,2.889,0,0,0-2.664-3.09,5.279,5.279,0,0,0-2.88,1.15c-1.728,1.3-6.121,6.34-8.569,9.22a1.056,1.056,0,0,0-.288.64,0.942,0.942,0,0,0,.936.87,0.772,0.772,0,0,0,.648-0.29c2.521-2.88,6.769-7.85,8.353-9a3.259,3.259,0,0,1,1.8-.79c0.648,0,.792.57,0.792,1.22,0,3.1-4.032,11.88-6.84,17.14a2.28,2.28,0,0,0-.36,1.08A0.838,0.838,0,0,0,718.58,1192.05Zm46.441,0.36c3.888,0,9.937-8.07,12.817-10.95a1.057,1.057,0,0,0,.288-0.65,0.941,0.941,0,0,0-.936-0.86,0.867,0.867,0,0,0-.648.29c-3.1,3.31-9.217,10.37-11.449,10.37a0.863,0.863,0,0,1-.792-1.08c0-2.02,2.448-7.85,3.96-11.38,0.936-2.16,1.8-4.39,2.52-6.41a1.953,1.953,0,0,0,.288-0.86,0.839,0.839,0,0,0-.936-0.8,0.956,0.956,0,0,0-.792.58,87.142,87.142,0,0,1-10.441,15.05c-2.52,2.74-4.9,4.68-6.84,4.68-0.793,0-1.153-.43-1.153-1.37,0-2.01,1.441-5.62,3.025-9.43l3.312-7.71a2.048,2.048,0,0,0,.216-0.64,0.9,0.9,0,0,0-.792-1.01c-0.864,0-.936.57-1.224,1.08-1.08,2.09-2.448,4.17-6.7,8.93a1.056,1.056,0,0,0-.288.64,0.83,0.83,0,0,0,.864.87,0.913,0.913,0,0,0,.72-0.29l2.161-2.45c-1.873,4.32-3.1,7.63-3.1,9.94a3.77,3.77,0,0,0,.5,2.09,2.793,2.793,0,0,0,2.521,1.15c2.448-.07,5.256-2.23,7.92-5.11a60.6,60.6,0,0,0,5.257-6.7c-1.152,2.74-2.809,6.99-2.809,9.07a2.942,2.942,0,0,0,.937,2.38A2.444,2.444,0,0,0,765.021,1192.41Z" transform="translate(-632.25 -1145.38)"/>
  <rect id="長方形_3_のコピー_4" data-name="長方形 3 のコピー 4" class="cls-2" x="22.75" y="77.62" width="100" height="2"/>
</svg>
