<svg id="ttl-about22.svg" xmlns="http://www.w3.org/2000/svg" width="145.219" height="79.031" viewBox="0 0 145.219 79.031">
  <defs>
    <style>
      .cls-1 {
        fill: #222;
        fill-rule: evenodd;
      }

      .cls-2 {
        fill: #fc3;
      }
    </style>
  </defs>
  <path id="About" class="cls-1" d="M635.3,847.549c6.912,0,14.473-7.7,19.658-14.761-1.729,4.321-2.953,7.993-2.953,10.585,0,2.376,1.3,4.176,3.961,4.176,4.032,0,9.288-5.4,14.185-11.088a0.82,0.82,0,0,0,.216-0.577,0.888,0.888,0,0,0-.864-0.936,0.7,0.7,0,0,0-.648.288c-3.241,3.6-9.289,10.513-12.889,10.513-1.44,0-2.233-.864-2.233-2.448,0-3.384,2.809-9.793,5.545-16.057l0.936-2.16c3.888-9,8.713-20.594,8.857-20.81a0.7,0.7,0,0,0,.5-0.792,0.889,0.889,0,0,0-.288-0.576c-1.3-1.368-3.817-1.945-7.273-1.945-4.392,0-15.769,1.513-26.066,14.474-6.193,7.776-8.641,15.625-8.641,21.458C627.311,842.077,629.327,847.549,635.3,847.549Zm31.971-43.923c-2.3,5.9-5.4,12.961-8.209,19.441-4.9,9.073-15.193,22.682-23.906,22.682-4.465,0-6.121-4.752-6.121-8.928,0-5.4,2.377-12.746,8.281-20.234,9.865-12.385,20.594-13.825,24.7-13.825A12.828,12.828,0,0,1,667.275,803.626Zm10.533,43.779c3.384,0,6.552-2.88,9-6.768a7.407,7.407,0,0,0,2.664.576c3.024,0,5.472-2.376,7.633-4.752a1.282,1.282,0,0,0,.288-0.721,0.791,0.791,0,0,0-.864-0.864,1.148,1.148,0,0,0-.721.36c-2.448,2.665-4.392,4.177-6.336,4.177a5.707,5.707,0,0,1-1.8-.36,19.342,19.342,0,0,0,2.664-9.073c0-1.8-.432-4.968-3.024-4.968-3.457,0-4.753,4.968-4.753,7.488s0.648,5.617,2.665,7.2c-2.089,3.456-4.753,5.9-7.345,5.9-2.232,0-3.384-1.44-3.384-4.032s0.936-6.481,2.952-12.025c3.744-3.888,12.385-13.969,16.057-20.666a9.077,9.077,0,0,0,1.3-4.392,3.288,3.288,0,0,0-3.24-3.313,2.451,2.451,0,0,0-1.008.144c-2.3.793-4.824,4.465-8.569,12.674-2.088,4.68-4.1,9.36-6.12,14.689-3.385,3.96-5.689,6.552-5.689,6.552a0.818,0.818,0,0,0-.216.576,0.889,0.889,0,0,0,.864.937,0.782,0.782,0,0,0,.648-0.288l2.881-3.241a28.026,28.026,0,0,0-1.657,8.353C672.7,844.957,674.28,847.405,677.808,847.405Zm13.825-44.5A1.47,1.47,0,0,1,693,804.49c0,4.032-7.7,13.609-13.537,20.017,1.656-4.536,6.193-15.481,10.009-20.089A3.406,3.406,0,0,1,691.633,802.906Zm-4.32,23.906c1.08,0,1.224,2.376,1.224,3.24,0,2.736-1.08,5.4-2.376,8.065-1.368-1.3-1.8-3.6-1.8-5.545C684.36,830.988,685.153,826.812,687.313,826.812Zm14.535,20.521c3.312,0,6.264-2.376,8.64-5.04a6.443,6.443,0,0,0,2.233.432c3.528,0,6.768-2.952,9.72-6.264a0.82,0.82,0,0,0,.216-0.577,0.832,0.832,0,0,0-.792-0.936,1.032,1.032,0,0,0-.72.288c-3.384,3.889-6.048,5.689-8.352,5.689a5.558,5.558,0,0,1-1.081-.144c2.161-3.1,4.105-6.913,4.105-11.017,0-1.872-.576-5.112-3.169-5.112-4.1,0-6.336,6.912-6.336,10.44,0,2.881.864,5.041,2.592,6.337-1.728,1.8-4.176,4.1-7.056,4.1-2.161,0-3.169-2.016-3.169-4.248,0-4.32,3.1-10.873,8.425-14.4a1,1,0,0,0,.432-0.792,0.943,0.943,0,0,0-.936-0.864,1.023,1.023,0,0,0-.432.144c-6.121,4.032-9.289,11.161-9.289,15.913C696.879,844.237,698.391,847.333,701.848,847.333Zm10.8-20.881c1.225,0,1.369,2.376,1.369,3.384,0,3.6-1.729,7.057-4.033,10.153-1.656-1.152-1.872-3.528-1.872-4.9C708.112,832.212,709.984,826.452,712.648,826.452Zm26.873,20.953c3.888,0,9.937-8.064,12.817-10.944a1.075,1.075,0,0,0,.288-0.649,0.943,0.943,0,0,0-.936-0.864,0.88,0.88,0,0,0-.648.288c-3.1,3.313-9.217,10.369-11.449,10.369-0.576,0-.792-0.432-0.792-1.08,0-2.016,2.448-7.848,3.96-11.377,0.936-2.16,1.8-4.392,2.52-6.408a1.95,1.95,0,0,0,.288-0.864,0.835,0.835,0,0,0-.936-0.792,0.956,0.956,0,0,0-.792.576A86.948,86.948,0,0,1,733.4,840.709c-2.52,2.736-4.9,4.68-6.84,4.68a1.105,1.105,0,0,1-1.153-1.368c0-2.016,1.441-5.616,3.025-9.433l3.312-7.7a2.12,2.12,0,0,0,.216-0.648,0.905,0.905,0,0,0-.792-1.008c-0.864,0-.936.576-1.224,1.08-1.08,2.088-2.448,4.176-6.7,8.928a1.072,1.072,0,0,0-.288.648,0.83,0.83,0,0,0,.864.865,0.924,0.924,0,0,0,.72-0.288l2.161-2.449c-1.873,4.321-3.1,7.633-3.1,9.937a3.745,3.745,0,0,0,.5,2.088,2.784,2.784,0,0,0,2.521,1.152c2.448-.072,5.256-2.232,7.92-5.112a59.736,59.736,0,0,0,5.257-6.7c-1.152,2.737-2.809,6.985-2.809,9.073a2.939,2.939,0,0,0,.937,2.376A2.453,2.453,0,0,0,739.521,847.405Zm14.23-10.656a0.88,0.88,0,0,0,.648-0.288,46.2,46.2,0,0,0,3.241-3.817,34.258,34.258,0,0,0-1.945,9.577c0,2.52,1.081,5.112,3.673,5.112,3.672,0,10.513-8.064,12.889-10.872a1.075,1.075,0,0,0,.288-0.649,0.943,0.943,0,0,0-.936-0.864,0.88,0.88,0,0,0-.648.288c-4.105,4.609-9.433,10.3-11.593,10.3-1.512,0-1.944-2.016-1.944-3.384,0-4.032,2.448-10.8,4.1-15.049h8.065a0.953,0.953,0,0,0,.936-0.936,0.893,0.893,0,0,0-.936-0.864h-7.345l0.36-.865c1.512-3.6,2.808-6.7,4.176-10.152a2.1,2.1,0,0,0,.144-0.648,0.876,0.876,0,0,0-.864-0.865,0.935,0.935,0,0,0-.864.577s-0.864,1.944-3.24,7.992c-0.648,1.368-1.224,2.736-1.872,3.961h-4.465a0.893,0.893,0,0,0-.936.864,0.953,0.953,0,0,0,.936.936h3.529a40.13,40.13,0,0,1-6.049,8.136,0.88,0.88,0,0,0-.288.648A0.894,0.894,0,0,0,753.751,836.749Z" transform="translate(-627.312 -800.969)"/>
  <rect id="長方形_3" data-name="長方形 3" class="cls-2" x="22.688" y="77.031" width="100" height="2"/>
</svg>
