<?xml version="1.0" encoding="utf-8"?>
<!-- Generator: Adobe Illustrator 27.7.0, SVG Export Plug-In . SVG Version: 6.00 Build 0)  -->
<svg version="1.1" id="ttl-menu2.svg" xmlns="http://www.w3.org/2000/svg" xmlns:xlink="http://www.w3.org/1999/xlink" x="0px"
	 y="0px" width="145.875px" height="79.62px" viewBox="0 0 145.875 79.62" style="enable-background:new 0 0 145.875 79.62;"
	 xml:space="preserve">
<style type="text/css">
	.st0{fill-rule:evenodd;clip-rule:evenodd;fill:#222222;stroke:#000000;stroke-miterlimit:10;}
	.st1{fill:#FFCC33;}
</style>
<path id="Menu" class="st0" d="M0.929,46.74c0.354-0.025,0.661-0.25,0.792-0.58c1.008-2.52,4.825-11.45,8.065-19.22
	c4.248-9.37,15.265-25.13,21.962-25.13c2.592,0,3.456,2.16,3.456,4.68c0,4.03-1.368,7.99-3.168,11.95
	c-3.6,7.78-9.289,22.32-11.089,27c-0.058,0.136-0.083,0.283-0.072,0.43c-0.014,0.43,0.323,0.79,0.753,0.804
	c0.037,0.001,0.074,0,0.111-0.004c0.379-0.001,0.719-0.23,0.864-0.58c2.88-7.49,7.057-18.15,10.729-26.07
	c3.168-5.69,12.1-18.21,19.37-18.21c1.944,0,2.808,1.58,2.808,3.6c0,4.24-4.248,13.46-6.265,18.21
	c-2.016,4.68-6.768,15.05-6.768,19.37c-0.165,2.1,1.405,3.937,3.505,4.102c0.151,0.012,0.303,0.015,0.455,0.008
	c3.168,0,8.569-6.41,12.817-11.02c0.146-0.157,0.223-0.366,0.216-0.58c-0.001-0.488-0.377-0.893-0.864-0.93
	c-0.243,0.018-0.473,0.12-0.648,0.29c-3.024,3.24-9.145,10.51-11.593,10.51c-1.224-0.066-2.163-1.112-2.097-2.336
	c0.002-0.038,0.005-0.076,0.009-0.114c0-3.46,4.464-13.32,6.625-18.58c1.944-4.68,6.336-13.61,6.336-18.93
	c0-2.74-1.3-5.33-4.464-5.33c-6.409,0-12.385,6.69-16.634,12.24c0.528-1.9,0.818-3.858,0.864-5.83c0-3.6-1.512-6.48-5.256-6.48
	c-5.4,0-11.809,7.2-16.922,14.68c1.153-2.59,3.745-8.71,3.745-10.36c0-2.81-2.592-3.89-5.113-3.89c-3.816,0-10.081,2.45-10.081,5.9
	c0.024,0.503,0.452,0.89,0.954,0.866c0.411-0.02,0.758-0.313,0.846-0.716c0-2.74,5.9-4.25,8.28-4.25c1.3,0,3.313,0.29,3.313,2.09
	c0,1.94-6.913,17.71-11.089,27.72c-2.449,5.83-4.609,10.94-5.617,13.46c-0.059,0.163-0.084,0.337-0.072,0.51
	c0.038,0.44,0.425,0.767,0.865,0.729C0.881,46.747,0.905,46.744,0.929,46.74z M63.458,47.1c4.464,0,10.585-4.03,16.633-11.02
	c0.146-0.157,0.223-0.366,0.216-0.58c0.038-0.475-0.317-0.892-0.792-0.93c-0.273-0.029-0.543,0.079-0.72,0.29
	c-6.409,7.34-12.1,10.44-15.481,10.44c-2.449,0-3.529-1.66-3.529-4.11c0.014-1.414,0.233-2.818,0.648-4.17
	c8.857-1.88,13.249-5.91,13.249-9.22c0-2.02-1.44-3.24-3.672-3.24c-6.336,0-12.025,10.44-12.025,16.49
	C57.985,44.22,59.497,47.1,63.458,47.1z M70.01,26.36c0.648,0,1.872,0.29,1.872,1.37c0,2.01-3.168,5.4-10.657,7.27
	C62.666,31.83,66.266,26.36,70.01,26.36z M86.33,46.67c0.428-0.021,0.812-0.269,1.008-0.65c1.224-2.02,4.32-7.85,7.849-12.32
	c3.168-3.96,6.768-7.27,10.152-7.27c0.519-0.149,1.061,0.151,1.21,0.67c0.045,0.156,0.05,0.321,0.015,0.48
	c0,1.8-1.657,5.4-2.953,8.14c-1.584,3.38-3.024,6.48-3.024,8.57c-0.059,1.372,1.006,2.531,2.377,2.59
	c0.072,0.003,0.143,0.003,0.215,0c3.529,0,9-6.12,13.177-10.8c0.146-0.157,0.223-0.366,0.216-0.58
	c0.046-0.466-0.294-0.88-0.76-0.926c-0.035-0.003-0.07-0.005-0.104-0.004c-0.243,0.018-0.473,0.12-0.648,0.29
	c-4.248,4.75-9.289,10.22-11.809,10.22c-0.431,0.051-0.822-0.257-0.873-0.688c-0.01-0.081-0.007-0.162,0.009-0.242
	c0-1.66,1.512-5.12,2.88-7.71c1.008-1.94,3.1-6.48,3.1-9.22c0-1.65-1.3-2.59-3.025-2.59c-4.392,0-8.712,3.96-12.6,9.22
	c0.837-2.009,1.418-4.116,1.728-6.27c0.115-1.588-1.076-2.97-2.664-3.09c-1.053,0.086-2.057,0.487-2.88,1.15
	c-1.728,1.3-6.121,6.34-8.569,9.22c-0.166,0.174-0.268,0.4-0.288,0.64c0.038,0.49,0.445,0.868,0.936,0.87
	c0.25,0.014,0.492-0.094,0.648-0.29c2.521-2.88,6.769-7.85,8.353-9c0.504-0.442,1.133-0.718,1.8-0.79c0.648,0,0.792,0.57,0.792,1.22
	c0,3.1-4.032,11.88-6.84,17.14c-0.209,0.324-0.333,0.695-0.36,1.08c-0.06,0.459,0.264,0.88,0.723,0.939
	C86.19,46.678,86.26,46.678,86.33,46.67z M132.771,47.03c3.888,0,9.937-8.07,12.817-10.95c0.168-0.177,0.27-0.407,0.288-0.65
	c-0.042-0.486-0.448-0.859-0.936-0.86c-0.247,0-0.483,0.105-0.648,0.29c-3.1,3.31-9.217,10.37-11.449,10.37
	c-0.476-0.024-0.843-0.429-0.819-0.905c0.003-0.059,0.012-0.118,0.027-0.175c0-2.02,2.448-7.85,3.96-11.38
	c0.936-2.16,1.8-4.39,2.52-6.41c0.162-0.26,0.261-0.555,0.288-0.86c-0.018-0.463-0.409-0.823-0.872-0.805
	c-0.022,0.001-0.043,0.002-0.064,0.005c-0.351,0.033-0.655,0.255-0.792,0.58c-2.942,5.37-6.442,10.414-10.441,15.05
	c-2.52,2.74-4.9,4.68-6.84,4.68c-0.793,0-1.153-0.43-1.153-1.37c0-2.01,1.441-5.62,3.025-9.43l3.312-7.71
	c0.107-0.2,0.18-0.416,0.216-0.64c0.064-0.493-0.284-0.944-0.777-1.008c-0.005-0.001-0.01-0.001-0.015-0.002
	c-0.864,0-0.936,0.57-1.224,1.08c-1.08,2.09-2.448,4.17-6.7,8.93c-0.166,0.174-0.268,0.4-0.288,0.64
	c-0.023,0.458,0.33,0.847,0.788,0.87c0.025,0.001,0.05,0.001,0.076,0c0.271,0.015,0.535-0.091,0.72-0.29l2.161-2.45
	c-1.873,4.32-3.1,7.63-3.1,9.94c-0.04,0.73,0.134,1.457,0.5,2.09c0.578,0.802,1.536,1.24,2.521,1.15
	c2.448-0.07,5.256-2.23,7.92-5.11c1.907-2.107,3.664-4.346,5.257-6.7c-1.152,2.74-2.809,6.99-2.809,9.07
	c-0.067,0.895,0.278,1.771,0.937,2.38C131.622,46.827,132.188,47.033,132.771,47.03z"/>
<rect id="長方形_3_のコピー_4" x="22.75" y="77.62" class="st1" width="100" height="2"/>
</svg>
