<svg id="ttl-photos2.svg" xmlns="http://www.w3.org/2000/svg" width="155.156" height="79.47" viewBox="0 0 155.156 79.47">
  <defs>
    <style>
      .cls-1 {
        fill: #222;
        fill-rule: evenodd;
      }

      .cls-2 {
        fill: #fc3;
      }
    </style>
  </defs>
  <path id="Photos_のコピー" data-name="Photos のコピー" class="cls-1" d="M649.153,1525.01a21.1,21.1,0,0,0,15.913-8.13,28.089,28.089,0,0,0,6.192-16.85c0-4.11-1.152-8.5-5.9-8.5-6.553,0-12.889,8.93-16.489,14.18,1.008-2.44,3.528-8.06,3.528-9.93,0-3.03-2.448-3.96-5.041-3.96-3.528,0-10.08,2.59-10.08,5.61a1.02,1.02,0,0,0,.864,1.16,0.835,0.835,0,0,0,.936-0.72c0-2.24,5.328-4.25,8.28-4.25,1.224,0,3.241.36,3.241,2.01,0,2.02-6.913,17.93-11.521,28.95-2.3,5.54-4.321,10.37-5.257,12.82a1.207,1.207,0,0,0-.072.5,0.865,0.865,0,0,0,.864.72,0.93,0.93,0,0,0,.864-0.57l6.409-15.56c4.608-11.16,16.057-29.16,23.33-29.16,3.312,0,4.248,2.88,4.248,6.41a26.735,26.735,0,0,1-5.76,15.98,19.548,19.548,0,0,1-14.545,7.49c-0.649,0-4.321-.14-4.321-1.44a0.89,0.89,0,0,0-.864-0.93,0.951,0.951,0,0,0-.936.93C643.032,1524.58,646.992,1525.01,649.153,1525.01Zm20.382,13.9c0.792,0,1.44-2.95,1.944-3.89,4.1-9.36,11.521-16.34,13.9-17.06a4.542,4.542,0,0,1,1.584-.29,1.732,1.732,0,0,1,1.8,2.01c0,0.87-.576,3.17-2.3,6.92s-2.953,6.91-2.953,9a2.594,2.594,0,0,0,2.377,2.81c3.6,0,10.3-8.21,12.817-10.95a0.814,0.814,0,0,0,.216-0.58,0.89,0.89,0,0,0-.864-0.93,1.041,1.041,0,0,0-.648.29c-3.889,4.32-9.361,10.37-11.377,10.37-0.5,0-.72-0.44-0.72-1.08,0-1.73,1.44-5.12,2.808-8.29,2.088-4.82,2.448-6.33,2.448-7.63,0-2.3-1.3-3.74-3.6-3.74a7.343,7.343,0,0,0-2.088.36c-2.017.57-5.689,3.74-9.217,8.35l2.3-5.76c2.232-2.52,4.68-5.4,7.2-8.21,4.392-5.04,8.208-11.16,8.856-13.54a5.065,5.065,0,0,0,.216-1.51c0-1.65-1.08-3.38-2.808-3.38-1.3,0-3.024.86-4.608,3.31-2.016,3.1-5.545,10.58-10.369,22.39l-0.576.65c-3.024,3.46-5.257,6.12-6.7,7.71a0.879,0.879,0,0,0-.288.57,1.084,1.084,0,0,0,1.008.94,0.648,0.648,0,0,0,.576-0.29c1.008-1.08,2.089-2.38,3.817-4.39l-4.465,11.3a19.5,19.5,0,0,0-1.44,3.6A1.139,1.139,0,0,0,669.535,1538.91Zm21.89-44.93c0.72,0,1.008.79,1.008,1.58a4.317,4.317,0,0,1-.144,1.08c-0.36,1.23-1.944,4.32-5.256,8.79-1.8,2.37-4.033,4.97-6.841,8.13,3.673-8.78,6.409-14.54,8.137-17.13C689.481,1494.7,690.489,1493.98,691.425,1493.98Zm11.423,44.35c3.312,0,6.264-2.37,8.64-5.04a6.416,6.416,0,0,0,2.233.44c3.528,0,6.768-2.96,9.72-6.27a0.814,0.814,0,0,0,.216-0.58,0.828,0.828,0,0,0-.792-0.93,1.017,1.017,0,0,0-.72.29c-3.384,3.88-6.048,5.68-8.352,5.68a5.707,5.707,0,0,1-1.081-.14c2.161-3.1,4.105-6.91,4.105-11.02,0-1.87-.576-5.11-3.169-5.11-4.1,0-6.336,6.91-6.336,10.44,0,2.88.864,5.04,2.592,6.34-1.728,1.8-4.176,4.1-7.056,4.1-2.161,0-3.169-2.01-3.169-4.25,0-4.32,3.1-10.87,8.425-14.4a0.98,0.98,0,0,0,.432-0.79,0.941,0.941,0,0,0-.936-0.86,1.044,1.044,0,0,0-.432.14c-6.121,4.03-9.289,11.16-9.289,15.91C697.879,1535.24,699.391,1538.33,702.848,1538.33Zm10.8-20.88c1.225,0,1.369,2.38,1.369,3.39,0,3.6-1.729,7.05-4.033,10.15-1.656-1.15-1.872-3.53-1.872-4.9C709.112,1523.21,710.984,1517.45,713.648,1517.45Zm11.1,10.3a0.867,0.867,0,0,0,.648-0.29,45.4,45.4,0,0,0,3.241-3.82,34.334,34.334,0,0,0-1.945,9.58c0,2.52,1.081,5.11,3.673,5.11,3.672,0,10.513-8.06,12.889-10.87a1.057,1.057,0,0,0,.288-0.65,0.941,0.941,0,0,0-.936-0.86,0.867,0.867,0,0,0-.648.29c-4.105,4.6-9.433,10.29-11.593,10.29-1.512,0-1.944-2.01-1.944-3.38,0-4.03,2.448-10.8,4.1-15.05h8.065a0.953,0.953,0,0,0,.936-0.94,0.892,0.892,0,0,0-.936-0.86h-7.345l0.36-.86c1.512-3.6,2.808-6.7,4.176-10.16a2.053,2.053,0,0,0,.144-0.65,0.873,0.873,0,0,0-.864-0.86,0.939,0.939,0,0,0-.864.58s-0.864,1.94-3.24,7.99c-0.648,1.37-1.224,2.74-1.872,3.96h-4.465a0.892,0.892,0,0,0-.936.86,0.953,0.953,0,0,0,.936.94h3.529a40.256,40.256,0,0,1-6.049,8.14,0.864,0.864,0,0,0-.288.64A0.893,0.893,0,0,0,724.751,1527.75Zm23.1,10.58c3.312,0,6.264-2.37,8.64-5.04a6.416,6.416,0,0,0,2.233.44c3.528,0,6.768-2.96,9.72-6.27a0.814,0.814,0,0,0,.216-0.58,0.828,0.828,0,0,0-.792-0.93,1.017,1.017,0,0,0-.72.29c-3.384,3.88-6.048,5.68-8.352,5.68a5.707,5.707,0,0,1-1.081-.14c2.161-3.1,4.105-6.91,4.105-11.02,0-1.87-.576-5.11-3.169-5.11-4.1,0-6.336,6.91-6.336,10.44,0,2.88.864,5.04,2.592,6.34-1.728,1.8-4.176,4.1-7.056,4.1-2.161,0-3.169-2.01-3.169-4.25,0-4.32,3.1-10.87,8.425-14.4a0.98,0.98,0,0,0,.432-0.79,0.941,0.941,0,0,0-.936-0.86,1.044,1.044,0,0,0-.432.14c-6.121,4.03-9.289,11.16-9.289,15.91C742.879,1535.24,744.391,1538.33,747.848,1538.33Zm10.8-20.88c1.225,0,1.369,2.38,1.369,3.39,0,3.6-1.729,7.05-4.033,10.15-1.656-1.15-1.872-3.53-1.872-4.9C754.112,1523.21,755.984,1517.45,758.648,1517.45Zm12.255,21.53c6.481,0,13.25-6.26,17.786-11.52a1,1,0,0,0,.216-0.65,0.828,0.828,0,0,0-.864-0.86,0.772,0.772,0,0,0-.648.29c-3.024,3.38-6.841,7.2-10.8,9.29a13.9,13.9,0,0,0,1.08-6.13c0-2.8-.432-5.54-0.432-8.78a8.007,8.007,0,0,1,.432-3.17,3.486,3.486,0,0,0,1.008-1.58,0.884,0.884,0,0,0-.792-0.94c-0.72,0-1.368.94-1.656,1.37a106.878,106.878,0,0,1-7.057,9.58,89.493,89.493,0,0,1-6.7,7.05,1.022,1.022,0,0,0-.36.72,1.339,1.339,0,0,0,.288.72A10.923,10.923,0,0,0,770.9,1538.98Zm-6.7-5.18c2.3-2.24,4.32-4.4,5.976-6.34q3.242-3.885,5.185-6.7c0,2.74.5,5.48,0.5,8.79,0,4.25-1.08,7.56-4.681,7.56A8.5,8.5,0,0,1,764.207,1533.8Z" transform="translate(-633.75 -1491.53)"/>
  <rect id="長方形_3_のコピー_5" data-name="長方形 3 のコピー 5" class="cls-2" x="27.25" y="77.47" width="100" height="2"/>
</svg>
