<?xml version="1.0" encoding="utf-8"?>
<!-- Generator: Adobe Illustrator 27.7.0, SVG Export Plug-In . SVG Version: 6.00 Build 0)  -->
<svg version="1.1" id="ttl-photos2.svg" xmlns="http://www.w3.org/2000/svg" xmlns:xlink="http://www.w3.org/1999/xlink" x="0px"
	 y="0px" width="155.156px" height="79.47px" viewBox="0 0 155.156 79.47" style="enable-background:new 0 0 155.156 79.47;"
	 xml:space="preserve">
<style type="text/css">
	.st0{fill-rule:evenodd;clip-rule:evenodd;fill:#222222;stroke:#000000;stroke-miterlimit:10;}
	.st1{fill:#FFCC33;}
</style>
<path id="Photos_のコピー" class="st0" d="M15.403,33.48c6.247-0.219,12.075-3.197,15.913-8.13
	c3.852-4.788,6.027-10.707,6.192-16.85c0-4.11-1.152-8.5-5.9-8.5c-6.553,0-12.889,8.93-16.489,14.18
	c1.008-2.44,3.528-8.06,3.528-9.93c0-3.03-2.448-3.96-5.041-3.96c-3.528,0-10.08,2.59-10.08,5.61
	C3.443,6.457,3.827,6.976,4.384,7.059c0.002,0,0.004,0.001,0.006,0.001c0.457,0.06,0.876-0.263,0.936-0.72
	c0-2.24,5.328-4.25,8.28-4.25c1.224,0,3.241,0.36,3.241,2.01c0,2.02-6.913,17.93-11.521,28.95c-2.3,5.54-4.321,10.37-5.257,12.82
	c-0.059,0.16-0.084,0.33-0.072,0.5c0.071,0.42,0.438,0.725,0.864,0.72c0.377,0.003,0.718-0.222,0.864-0.57l6.409-15.56
	C12.742,19.8,24.191,1.8,31.464,1.8c3.312,0,4.248,2.88,4.248,6.41c-0.132,5.811-2.154,11.421-5.76,15.98
	c-3.52,4.503-8.835,7.24-14.545,7.49c-0.649,0-4.321-0.14-4.321-1.44c0.022-0.491-0.358-0.907-0.849-0.929
	c-0.005,0-0.01,0-0.015-0.001c-0.511,0.008-0.925,0.419-0.936,0.93C9.282,33.05,13.242,33.48,15.403,33.48z M35.785,47.38
	c0.792,0,1.44-2.95,1.944-3.89c4.1-9.36,11.521-16.34,13.9-17.06c0.507-0.19,1.043-0.288,1.584-0.29
	c0.955-0.05,1.77,0.684,1.82,1.639c0.007,0.124,0,0.249-0.02,0.371c0,0.87-0.576,3.17-2.3,6.92s-2.953,6.91-2.953,9
	c-0.124,1.427,0.933,2.685,2.36,2.809c0.006,0,0.011,0.001,0.017,0.001c3.6,0,10.3-8.21,12.817-10.95
	c0.146-0.157,0.223-0.366,0.216-0.58c0.022-0.491-0.358-0.907-0.849-0.929c-0.005,0-0.01,0-0.015-0.001
	c-0.243,0.018-0.473,0.12-0.648,0.29c-3.889,4.32-9.361,10.37-11.377,10.37c-0.5,0-0.72-0.44-0.72-1.08c0-1.73,1.44-5.12,2.808-8.29
	c2.088-4.82,2.448-6.33,2.448-7.63c0-2.3-1.3-3.74-3.6-3.74c-0.71,0.018-1.413,0.14-2.088,0.36c-2.017,0.57-5.689,3.74-9.217,8.35
	l2.3-5.76c2.232-2.52,4.68-5.4,7.2-8.21c4.392-5.04,8.208-11.16,8.856-13.54c0.148-0.49,0.221-0.999,0.216-1.51
	c0-1.65-1.08-3.38-2.808-3.38c-1.3,0-3.024,0.86-4.608,3.31c-2.016,3.1-5.545,10.58-10.369,22.39L42.123,27
	c-3.024,3.46-5.257,6.12-6.7,7.71c-0.164,0.147-0.267,0.351-0.288,0.57c0.068,0.514,0.49,0.908,1.008,0.94
	c0.23,0.012,0.449-0.098,0.576-0.29c1.008-1.08,2.089-2.38,3.817-4.39l-4.465,11.3c-0.598,1.149-1.081,2.355-1.44,3.6
	C34.729,46.996,35.22,47.396,35.785,47.38L35.785,47.38z M57.675,2.45c0.72,0,1.008,0.79,1.008,1.58
	c-0.002,0.365-0.051,0.728-0.144,1.08c-0.36,1.23-1.944,4.32-5.256,8.79c-1.8,2.37-4.033,4.97-6.841,8.13
	c3.673-8.78,6.409-14.54,8.137-17.13C55.731,3.17,56.739,2.45,57.675,2.45L57.675,2.45z M69.098,46.8c3.312,0,6.264-2.37,8.64-5.04
	c0.712,0.279,1.468,0.427,2.233,0.44c3.528,0,6.768-2.96,9.72-6.27c0.146-0.157,0.223-0.366,0.216-0.58
	c0.057-0.454-0.265-0.868-0.719-0.924c-0.024-0.003-0.049-0.005-0.073-0.006c-0.269-0.002-0.528,0.102-0.72,0.29
	c-3.384,3.88-6.048,5.68-8.352,5.68c-0.364-0.012-0.726-0.059-1.081-0.14c2.161-3.1,4.105-6.91,4.105-11.02
	c0-1.87-0.576-5.11-3.169-5.11c-4.1,0-6.336,6.91-6.336,10.44c0,2.88,0.864,5.04,2.592,6.34c-1.728,1.8-4.176,4.1-7.056,4.1
	c-2.161,0-3.169-2.01-3.169-4.25c0-4.32,3.1-10.87,8.425-14.4c0.264-0.178,0.425-0.472,0.432-0.79
	c-0.042-0.486-0.448-0.859-0.936-0.86c-0.153,0.014-0.3,0.062-0.432,0.14c-6.121,4.03-9.289,11.16-9.289,15.91
	C64.129,43.71,65.641,46.8,69.098,46.8z M79.898,25.92c1.225,0,1.369,2.38,1.369,3.39c0,3.6-1.729,7.05-4.033,10.15
	c-1.656-1.15-1.872-3.53-1.872-4.9C75.362,31.68,77.234,25.92,79.898,25.92z M90.998,36.22c0.247,0,0.483-0.105,0.648-0.29
	c1.15-1.213,2.232-2.488,3.241-3.82c-1.102,3.084-1.757,6.31-1.945,9.58c0,2.52,1.081,5.11,3.673,5.11
	c3.672,0,10.513-8.06,12.889-10.87c0.168-0.177,0.27-0.407,0.288-0.65c-0.042-0.486-0.448-0.859-0.936-0.86
	c-0.247,0-0.483,0.105-0.648,0.29C104.103,39.31,98.775,45,96.615,45c-1.512,0-1.944-2.01-1.944-3.38c0-4.03,2.448-10.8,4.1-15.05
	h8.065c0.515-0.009,0.929-0.425,0.936-0.94c-0.017-0.492-0.43-0.878-0.922-0.861c-0.005,0-0.009,0-0.014,0.001h-7.345l0.36-0.86
	c1.512-3.6,2.808-6.7,4.176-10.16c0.083-0.207,0.132-0.427,0.144-0.65c-0.007-0.474-0.39-0.855-0.864-0.86
	c-0.379,0.001-0.719,0.23-0.864,0.58c0,0-0.864,1.94-3.24,7.99c-0.648,1.37-1.224,2.74-1.872,3.96h-4.465
	c-0.492-0.025-0.911,0.354-0.935,0.846c0,0.005,0,0.009-0.001,0.014c0.007,0.515,0.421,0.931,0.936,0.94h3.529
	c-1.665,2.958-3.698,5.693-6.049,8.14c-0.182,0.163-0.287,0.396-0.288,0.64c0.012,0.493,0.421,0.883,0.914,0.871
	c0.01,0,0.019-0.001,0.029-0.001H90.998z M114.098,46.8c3.312,0,6.264-2.37,8.64-5.04c0.712,0.279,1.468,0.427,2.233,0.44
	c3.528,0,6.768-2.96,9.72-6.27c0.146-0.157,0.223-0.366,0.216-0.58c0.057-0.454-0.265-0.868-0.719-0.924
	c-0.024-0.003-0.049-0.005-0.073-0.006c-0.269-0.002-0.528,0.102-0.72,0.29c-3.384,3.88-6.048,5.68-8.352,5.68
	c-0.364-0.012-0.726-0.059-1.081-0.14c2.161-3.1,4.105-6.91,4.105-11.02c0-1.87-0.576-5.11-3.169-5.11
	c-4.1,0-6.336,6.91-6.336,10.44c0,2.88,0.864,5.04,2.592,6.34c-1.728,1.8-4.176,4.1-7.056,4.1c-2.161,0-3.169-2.01-3.169-4.25
	c0-4.32,3.1-10.87,8.425-14.4c0.264-0.178,0.425-0.472,0.432-0.79c-0.042-0.486-0.448-0.859-0.936-0.86
	c-0.153,0.014-0.3,0.062-0.432,0.14c-6.121,4.03-9.289,11.16-9.289,15.91C109.129,43.71,110.641,46.8,114.098,46.8L114.098,46.8z
	 M124.898,25.92c1.225,0,1.369,2.38,1.369,3.39c0,3.6-1.729,7.05-4.033,10.15c-1.656-1.15-1.872-3.53-1.872-4.9
	C120.362,31.68,122.234,25.92,124.898,25.92L124.898,25.92z M137.153,47.45c6.481,0,13.25-6.26,17.786-11.52
	c0.146-0.184,0.223-0.415,0.216-0.65c0.018-0.457-0.338-0.842-0.795-0.86c-0.023-0.001-0.046-0.001-0.069,0
	c-0.25-0.014-0.492,0.094-0.648,0.29c-3.024,3.38-6.841,7.2-10.8,9.29c0.819-1.935,1.188-4.031,1.08-6.13
	c0-2.8-0.432-5.54-0.432-8.78c-0.071-1.075,0.076-2.153,0.432-3.17c0.474-0.425,0.823-0.971,1.008-1.58
	c0.033-0.476-0.318-0.891-0.792-0.94c-0.72,0-1.368,0.94-1.656,1.37c-2.173,3.322-4.529,6.52-7.057,9.58
	c-2.104,2.47-4.341,4.823-6.7,7.05c-0.213,0.181-0.344,0.441-0.36,0.72c0.023,0.263,0.123,0.514,0.288,0.72
	c1.961,2.774,5.101,4.478,8.496,4.61H137.153z M130.453,42.27c2.3-2.24,4.32-4.4,5.976-6.34c2.161-2.59,3.89-4.823,5.185-6.7
	c0,2.74,0.5,5.48,0.5,8.79c0,4.25-1.08,7.56-4.681,7.56c-2.721,0.077-5.315-1.153-6.976-3.31L130.453,42.27z"/>
<rect id="長方形_3_のコピー_5" x="27.25" y="77.47" class="st1" width="100" height="2"/>
</svg>
